<svg width="0" height="0" class="hidden">
  <symbol xmlns="http://www.w3.org/2000/svg" viewBox="0 0 512 512" id="buildings">
    <path d="M480.36 494.742h-14.382V43.146a8.629 8.629 0 00-8.629-8.629H296.27a8.628 8.628 0 00-8.629 8.629v37.393h-17.258V43.146a8.629 8.629 0 00-8.629-8.629H224.36V8.629c0-4.767-3.864-8.629-8.629-8.629s-8.629 3.862-8.629 8.629v25.888h-37.393a8.628 8.628 0 00-8.629 8.629v37.393h-25.888a8.628 8.628 0 00-8.629 8.629v71.91h-71.91a8.628 8.628 0 00-8.629 8.629v325.034H31.64c-4.766 0-8.629 3.862-8.629 8.629S26.875 512 31.64 512h448.72c4.766 0 8.629-3.862 8.629-8.629s-3.864-8.629-8.629-8.629zM178.337 51.775h74.786v28.764h-74.786V51.775zm-28.764 442.967h-5.753V480.36c0-4.767-3.864-8.629-8.629-8.629s-8.629 3.862-8.629 8.629v14.382h-5.753v-28.764h28.764v28.764zm57.528-221.484v221.484h-40.27v-37.393a8.629 8.629 0 00-8.629-8.629H112.18a8.628 8.628 0 00-8.629 8.629v37.393h-40.27V178.337h143.82v94.921zm8.629-112.179h-71.91V97.798h143.82v166.831h-63.28v-28.764h25.888c4.766 0 8.629-3.862 8.629-8.629s-3.864-8.629-8.629-8.629H224.36v-28.764h25.888c4.766 0 8.629-3.862 8.629-8.629s-3.864-8.629-8.629-8.629H224.36v-2.876a8.629 8.629 0 00-8.63-8.63zm152.45 333.663H224.36V281.888h143.82v212.854zm80.539 0h-63.281v-232.99c0-4.767-3.864-8.629-8.629-8.629s-8.629 3.862-8.629 8.629v2.876h-17.258v-2.876c0-4.767-3.864-8.629-8.629-8.629s-8.629 3.862-8.629 8.629v2.876H304.9V51.775h143.82v442.967z"></path>
    <path d="M261.753 477.485a8.63 8.63 0 008.629-8.629V307.778c0-4.767-3.864-8.629-8.629-8.629s-8.629 3.862-8.629 8.629v161.079a8.628 8.628 0 008.629 8.628zm34.517 0a8.63 8.63 0 008.629-8.629V307.778c0-4.767-3.864-8.629-8.629-8.629s-8.629 3.862-8.629 8.629v161.079a8.628 8.628 0 008.629 8.628zm34.516 0a8.63 8.63 0 008.629-8.629V307.778c0-4.767-3.864-8.629-8.629-8.629s-8.629 3.862-8.629 8.629v161.079a8.629 8.629 0 008.629 8.628zm11.506-368.182a8.628 8.628 0 008.629-8.629V89.169c0-4.767-3.864-8.629-8.629-8.629s-8.629 3.862-8.629 8.629v11.506a8.628 8.628 0 008.629 8.628zm34.517 0a8.628 8.628 0 008.629-8.629V89.169c0-4.767-3.864-8.629-8.629-8.629s-8.629 3.862-8.629 8.629v11.506a8.628 8.628 0 008.629 8.628zm34.517 0a8.628 8.628 0 008.629-8.629V89.169c0-4.767-3.864-8.629-8.629-8.629s-8.629 3.862-8.629 8.629v11.506a8.628 8.628 0 008.629 8.628zm-69.034 57.528a8.628 8.628 0 008.629-8.629v-11.506c0-4.767-3.864-8.629-8.629-8.629s-8.629 3.862-8.629 8.629v11.506a8.628 8.628 0 008.629 8.629zm34.517 0a8.628 8.628 0 008.629-8.629v-11.506c0-4.767-3.864-8.629-8.629-8.629s-8.629 3.862-8.629 8.629v11.506a8.628 8.628 0 008.629 8.629zm34.517 0a8.628 8.628 0 008.629-8.629v-11.506c0-4.767-3.864-8.629-8.629-8.629s-8.629 3.862-8.629 8.629v11.506a8.628 8.628 0 008.629 8.629zm-69.034 57.529a8.628 8.628 0 008.629-8.629v-11.506c0-4.767-3.864-8.629-8.629-8.629s-8.629 3.862-8.629 8.629v11.506a8.629 8.629 0 008.629 8.629zm34.517 0a8.628 8.628 0 008.629-8.629v-11.506c0-4.767-3.864-8.629-8.629-8.629s-8.629 3.862-8.629 8.629v11.506a8.629 8.629 0 008.629 8.629zm34.517 0a8.628 8.628 0 008.629-8.629v-11.506c0-4.767-3.864-8.629-8.629-8.629s-8.629 3.862-8.629 8.629v11.506a8.629 8.629 0 008.629 8.629zm-310.652 23.011a8.628 8.628 0 008.629-8.629v-11.506c0-4.767-3.864-8.629-8.629-8.629s-8.629 3.862-8.629 8.629v11.506a8.63 8.63 0 008.629 8.629zm34.517 0a8.628 8.628 0 008.629-8.629v-11.506c0-4.767-3.864-8.629-8.629-8.629s-8.629 3.862-8.629 8.629v11.506a8.629 8.629 0 008.629 8.629zm34.517 0a8.628 8.628 0 008.629-8.629v-11.506c0-4.767-3.864-8.629-8.629-8.629s-8.629 3.862-8.629 8.629v11.506a8.629 8.629 0 008.629 8.629zm-69.034 57.528a8.628 8.628 0 008.629-8.629v-11.506c0-4.767-3.864-8.629-8.629-8.629s-8.629 3.862-8.629 8.629v11.506a8.63 8.63 0 008.629 8.629zm34.517 0a8.628 8.628 0 008.629-8.629v-11.506c0-4.767-3.864-8.629-8.629-8.629s-8.629 3.862-8.629 8.629v11.506a8.629 8.629 0 008.629 8.629zm34.517 0a8.628 8.628 0 008.629-8.629v-11.506c0-4.767-3.864-8.629-8.629-8.629s-8.629 3.862-8.629 8.629v11.506a8.629 8.629 0 008.629 8.629zm-69.034 57.528a8.628 8.628 0 008.629-8.629v-11.506c0-4.767-3.864-8.629-8.629-8.629s-8.629 3.862-8.629 8.629v11.506a8.629 8.629 0 008.629 8.629zm34.517 0a8.628 8.628 0 008.629-8.629v-11.506c0-4.767-3.864-8.629-8.629-8.629s-8.629 3.862-8.629 8.629v11.506a8.628 8.628 0 008.629 8.629zm34.517 0a8.628 8.628 0 008.629-8.629v-11.506c0-4.767-3.864-8.629-8.629-8.629s-8.629 3.862-8.629 8.629v11.506a8.628 8.628 0 008.629 8.629zm-69.034 57.528a8.628 8.628 0 008.629-8.629V399.82c0-4.767-3.864-8.629-8.629-8.629s-8.629 3.862-8.629 8.629v11.506a8.629 8.629 0 008.629 8.629zm34.517 0a8.628 8.628 0 008.629-8.629V399.82c0-4.767-3.864-8.629-8.629-8.629s-8.629 3.862-8.629 8.629v11.506a8.628 8.628 0 008.629 8.629zm34.517 0a8.628 8.628 0 008.629-8.629V399.82c0-4.767-3.864-8.629-8.629-8.629s-8.629 3.862-8.629 8.629v11.506a8.628 8.628 0 008.629 8.629zm241.618-138.067a8.628 8.628 0 008.629-8.629v-11.506c0-4.767-3.864-8.629-8.629-8.629s-8.629 3.862-8.629 8.629v11.506a8.629 8.629 0 008.629 8.629zm0 57.528a8.628 8.628 0 008.629-8.629v-11.506c0-4.767-3.864-8.629-8.629-8.629s-8.629 3.862-8.629 8.629v11.506a8.629 8.629 0 008.629 8.629zm0 57.528a8.628 8.628 0 008.629-8.629v-11.506c0-4.767-3.864-8.629-8.629-8.629s-8.629 3.862-8.629 8.629v11.506a8.629 8.629 0 008.629 8.629zm0 57.528a8.628 8.628 0 008.629-8.629v-11.506c0-4.767-3.864-8.629-8.629-8.629s-8.629 3.862-8.629 8.629v11.506a8.629 8.629 0 008.629 8.629zm-152.45-319.281a8.629 8.629 0 00-8.629-8.629h-69.034a8.628 8.628 0 00-8.629 8.629 8.629 8.629 0 008.629 8.629h69.034a8.628 8.628 0 008.629-8.629z"></path>
  </symbol>
  <symbol xmlns="http://www.w3.org/2000/svg" viewBox="0 0 512 512" id="interest">
    <path d="M488.399 492h-21.933V173.536c0-14.823-12.06-26.882-26.882-26.882H390.56c-14.823 0-26.882 12.06-26.882 26.882V492h-55.692V317.825c0-14.823-12.059-26.882-26.882-26.882H232.08c-14.823 0-26.882 12.06-26.882 26.882V492h-55.692v-90.204c0-14.823-12.06-26.882-26.882-26.882H73.599c-14.823 0-26.882 12.06-26.882 26.882V492H23.601c-5.523 0-10 4.477-10 10s4.477 10 10 10h464.798c5.523 0 10-4.477 10-10s-4.477-10-10-10zm-358.895 0H66.716v-90.204a6.89 6.89 0 016.882-6.882h49.024a6.89 6.89 0 016.882 6.882V492zm158.481 0h-62.788V317.825a6.89 6.89 0 016.882-6.882h49.024a6.89 6.89 0 016.882 6.882V492zm158.481 0h-62.788V173.536a6.89 6.89 0 016.882-6.882h49.024a6.89 6.89 0 016.882 6.882V492zm19.976-481.484A9.965 9.965 0 00455.95.024c-.161-.007-.32-.024-.484-.024h-60.5c-5.523 0-10 4.477-10 10s4.477 10 10 10h37.357l-98.857 98.858-37.28-37.28a10.001 10.001 0 00-14.142 0l-179.769 179.77c-3.905 3.905-3.905 10.237 0 14.143 1.953 1.951 4.512 2.927 7.071 2.927s5.119-.976 7.071-2.929L289.115 102.79l37.28 37.28c3.905 3.905 10.237 3.905 14.143 0L446.466 34.143v33.81c0 5.523 4.477 10 10 10s10-4.477 10-10V11c0-.163-.017-.322-.024-.484z"></path>
    <circle cx="75.64" cy="303.31" r="10"></circle>
  </symbol>
  <symbol xmlns="http://www.w3.org/2000/svg" viewBox="-29 0 487 487.719" id="payment">
    <path d="M220.867 266.176a7.616 7.616 0 00-2.742-.094c-9.16-1.066-16.07-8.816-16.086-18.035a8 8 0 00-16 0c.024 15.394 10.32 28.879 25.164 32.953v8a8 8 0 0016 0v-7.516c17.133-3.586 28.777-19.543 26.977-36.953-1.805-17.41-16.473-30.64-33.977-30.644-10.031 0-18.164-8.133-18.164-18.164s8.133-18.164 18.164-18.164 18.164 8.132 18.164 18.164a8 8 0 0016 0c-.023-16.164-11.347-30.106-27.164-33.442V155a8 8 0 00-16 0v7.77c-16.508 4.507-27.133 20.535-24.86 37.496s16.747 29.62 33.86 29.617c9.899 0 17.973 7.926 18.152 17.82.184 9.895-7.597 18.113-17.488 18.473zm0 0"></path>
    <path d="M104.195 222.5c0 64.07 51.938 116.008 116.008 116.008S336.211 286.57 336.211 222.5s-51.938-116.008-116.008-116.008c-64.039.07-115.933 51.969-116.008 116.008zm116.008-100.008c55.234 0 100.008 44.774 100.008 100.008s-44.774 100.008-100.008 100.008S120.195 277.734 120.195 222.5c.063-55.207 44.801-99.945 100.008-100.008zm0 0"></path>
    <path d="M375.648 358.23l-62.668 29.61a51.043 51.043 0 00-43.515-26.852l-57.852-1.59a61.1 61.1 0 01-26.293-6.789l-5.886-3.05a103.833 103.833 0 00-96.176.101l.367-13.336a8 8 0 00-7.777-8.219L12.41 326.36a7.997 7.997 0 00-8.215 7.778L.363 473.347a8 8 0 007.778 8.22l63.437 1.746h.219a8 8 0 008-7.782l.183-6.66 16.48-8.824a28.269 28.269 0 0121.099-2.309l98.414 27.621c.172.051.343.09.52.13a105.348 105.348 0 0021.628 2.23 106.739 106.739 0 0044.59-9.73 7.43 7.43 0 00.992-.548l142.692-92.296a8.004 8.004 0 002.62-10.657c-10.593-18.797-34.09-25.957-53.367-16.258zM16.578 465.793l3.39-123.219 47.442 1.305-3.39 123.223zm258.926-2.094a90.704 90.704 0 01-55.469 6.192l-98.148-27.551a44.236 44.236 0 00-32.977 3.605l-8.422 4.512 2.254-81.926a87.938 87.938 0 0189.336-4.765l5.887 3.05a77.267 77.267 0 0033.21 8.579l57.856 1.59c16.25.468 30.051 12.038 33.348 27.96l-86.176-2.379a8.007 8.007 0 00-8.219 7.778 8.003 8.003 0 007.778 8.219l95.101 2.617h.223a8 8 0 007.992-7.782 50.772 50.772 0 00-.773-10.378l64.277-30.372c.063-.027.125-.058.188-.09a24.443 24.443 0 0127.64 3.872zM228.203 84V8a8 8 0 00-16 0v76a8 8 0 0016 0zm60 0V48a8 8 0 00-16 0v36a8 8 0 0016 0zm-120 0V48a8 8 0 00-16 0v36a8 8 0 0016 0zm0 0"></path>
  </symbol>
  <symbol xmlns="http://www.w3.org/2000/svg" viewBox="0 0 512 512" id="q1">
    <path d="M255.107 65.06c5.562 0 10.071-4.509 10.071-10.071V10.071C265.178 4.509 260.669 0 255.107 0s-10.071 4.509-10.071 10.071v44.918c.001 5.562 4.51 10.071 10.071 10.071zM501.28 345.985l-17.791-17.741c-6.329-6.321-14.764-9.803-23.752-9.803-5.747 0-11.264 1.43-16.153 4.109l-33.526-33.486 1.633-1.631c13.601-13.628 13.596-35.773-.001-49.355a34.57 34.57 0 00-17.531-9.48 35.171 35.171 0 001.389-9.798c0-9.355-3.634-18.127-10.212-24.678a34.575 34.575 0 00-17.531-9.48 35.166 35.166 0 001.389-9.798c0-9.356-3.634-18.127-10.223-24.688a34.735 34.735 0 00-17.516-9.455c3.436-11.847.5-25.176-8.82-34.512-7.758-7.725-18.285-11.045-28.43-9.969L237.77 83.645c-10.132-1.922-22.785-3.193-30.772 4.092-.504.46-1.018.989-1.524 1.578-12.384-4.514-26.828-1.826-36.745 8.08-6.579 6.571-10.203 15.339-10.203 24.689 0 3.368.477 6.657 1.386 9.799a34.52 34.52 0 00-17.5 9.459c-6.592 6.565-10.227 15.323-10.234 24.662a35.112 35.112 0 001.39 9.826 34.596 34.596 0 00-17.522 9.45c-6.592 6.585-10.222 15.358-10.222 24.703 0 7.158 2.137 13.977 6.097 19.737a34.71 34.71 0 00-13.415 8.347c-13.61 13.593-13.615 35.739.009 49.387l1.627 1.62-33.53 33.469c-12.461-5.867-27.814-3.669-38.097 6.601l-17.802 17.752C4.381 353.22.895 361.656.894 370.649c0 8.994 3.487 17.431 9.819 23.756l22.217 22.19c3.935 3.931 10.312 3.927 14.242-.008 3.931-3.935 3.927-10.312-.008-14.242l-22.217-22.19c-2.522-2.519-3.911-5.895-3.911-9.505 0-3.609 1.389-6.984 3.905-9.497L42.744 343.4c4.448-4.443 11.256-5.105 16.426-2.014a10.023 10.023 0 004.161 3.563l102.093 101.943a10.04 10.04 0 002.02 2.922 10.024 10.024 0 002.835 1.984 13.325 13.325 0 013.352 8.885c0 3.61-1.389 6.985-3.911 9.504l-17.785 17.764c-5.255 5.232-13.803 5.231-19.042.016l-22.217-22.219c-3.933-3.933-10.309-3.933-14.242 0s-3.933 10.309 0 14.242l22.233 22.235c6.544 6.517 15.138 9.774 23.736 9.774 8.6 0 17.204-3.262 23.756-9.785l17.796-17.775c6.332-6.325 9.819-14.761 9.819-23.756 0-6.419-1.785-12.549-5.104-17.835l37.736-37.69.121-.123c4.321-4.467 16.354-3.631 27.991-2.823 8.268.575 17.486 1.214 26.492.176l41.324 41.275c-2.677 4.881-4.106 10.391-4.106 16.129 0 8.985 3.487 17.416 9.819 23.741l17.797 17.775c6.328 6.321 14.763 9.803 23.751 9.803 8.987 0 17.422-3.481 23.751-9.803l107.941-107.81c6.332-6.324 9.819-14.76 9.819-23.754-.001-8.993-3.488-17.429-9.826-23.759zm-267.26-242.55l43.687 8.269-26.149 26.139c-4.045-1.944-9.589-5.57-15.671-11.388-8.325-7.964-14.28-17.159-14.822-22.894l-.001-.009-.001-.003a8.798 8.798 0 01-.044-.992c1.317-.32 4.815-.675 13.001.878zm-51.058 8.211c5.102-5.097 13.028-5.685 18.793-1.781 3.267 13.698 14.952 26.113 20.209 31.143 3.896 3.728 16.397 14.905 29.015 17.977a14.685 14.685 0 012.636 8.442c0 3.965-1.525 7.672-4.304 10.448-2.771 2.776-6.484 4.304-10.456 4.304-3.973 0-7.686-1.528-10.47-4.317l-.001-.001-.005-.005-45.418-45.336c-2.769-2.765-4.294-6.472-4.294-10.436.001-3.965 1.526-7.672 4.295-10.438zm-26.316 43.947c2.771-2.775 6.48-4.304 10.446-4.304 3.971 0 7.692 1.532 10.481 4.318l36.572 36.499c5.759 5.768 5.759 15.154.02 20.902-2.786 2.775-6.512 4.303-10.491 4.303s-7.705-1.528-10.479-4.291l-.001-.001-27.745-27.739c-.043-.043-.09-.083-.134-.127l-8.68-8.676c-2.785-2.782-4.318-6.496-4.315-10.458.004-3.949 1.532-7.644 4.326-10.426zm-26.366 43.938c2.773-2.769 6.49-4.294 10.468-4.294 3.945 0 7.63 1.503 10.391 4.224l27.83 27.817c2.775 2.764 4.304 6.467 4.304 10.427 0 3.959-1.529 7.662-4.315 10.437-2.772 2.768-6.485 4.293-10.456 4.293-3.977 0-7.702-1.529-10.478-4.293l-10.089-10.077-.007-.007-17.647-17.626c-2.782-2.779-4.314-6.491-4.314-10.451 0-3.959 1.532-7.672 4.313-10.45zm-17.54 52.786c2.785-2.782 6.507-4.314 10.48-4.314 3.972 0 7.693 1.531 10.477 4.311l10.103 10.091c2.776 2.764 4.304 6.467 4.304 10.427s-1.529 7.662-4.325 10.448c-2.771 2.775-6.484 4.304-10.456 4.304-3.973 0-7.686-1.528-10.477-4.324l-1.265-1.26c-.017-.017-.03-.035-.046-.051l-.058-.052-8.727-8.693c-5.759-5.771-5.764-15.14-.01-20.887zm205.234 114.458c-3.931-3.936-10.308-3.939-14.242-.009l-8.96 8.949c-8.514 8.514-23.941 7.442-38.86 6.407-16.201-1.126-32.954-2.288-43.795 8.842l-37.095 37.05-92.763-92.627 32.828-32.769c5.426 3.326 11.687 5.109 18.238 5.109 9.359 0 18.135-3.628 24.69-10.195 6.599-6.572 10.234-15.343 10.234-24.699 0-.087-.006-.173-.006-.26.087.001.174.006.261.006 9.346 0 18.115-3.617 24.679-10.173 6.599-6.572 10.234-15.344 10.234-24.699 0-.087-.006-.173-.006-.26.088 0 .176.006.265.006 9.343 0 18.117-3.613 24.725-10.194 6.86-6.871 10.253-15.917 10.188-24.944.09.001.18.006.27.006 9.359-.001 18.134-3.628 24.699-10.205 6.579-6.571 10.203-15.339 10.203-24.689 0-6.539-1.778-12.79-5.093-18.205l28.773-28.761a14.775 14.775 0 017.559-4.028c.3-.032.596-.08.889-.138 4.446-.613 9.115.759 12.515 4.145 5.759 5.769 5.759 15.155.021 20.903l-8.763 8.727c-.029.029-.06.055-.089.084L299.48 160.23c-3.936 3.93-3.94 10.307-.009 14.242 3.932 3.936 10.308 3.939 14.242.009l8.798-8.786.006-.006 1.33-1.325c5.775-5.722 15.131-5.71 20.9.051 2.776 2.764 4.305 6.467 4.305 10.427 0 3.959-1.529 7.662-4.327 10.448l-8.813 8.831-.003.004-10.092 10.051c-3.941 3.925-3.954 10.302-.029 14.242 3.925 3.941 10.301 3.953 14.242.029l10.138-10.097c2.771-2.776 6.484-4.304 10.456-4.304 3.973 0 7.687 1.528 10.478 4.324 2.776 2.765 4.304 6.468 4.304 10.428 0 3.959-1.528 7.662-4.32 10.442l-17.57 17.577c-3.932 3.934-3.931 10.31.002 14.242a10.038 10.038 0 007.12 2.948c2.578 0 5.156-.984 7.122-2.951l8.611-8.614c.049-.047.102-.088.151-.137 2.771-2.776 6.484-4.304 10.456-4.304 3.973 0 7.686 1.528 10.467 4.314 5.753 5.747 5.748 15.117 0 20.875l-8.755 8.745-.01.009-.009.01-13.896 13.879c-3.935 3.931-3.939 10.308-.009 14.243a10.042 10.042 0 007.126 2.954c2.575 0 5.151-.982 7.117-2.945l6.797-6.789 32.577 32.539-92.755 92.642-33.234-33.194a39.602 39.602 0 006.615-5.323l8.955-8.944c3.937-3.929 3.941-10.306.01-14.241zm169.078 12.472l-107.941 107.81c-2.525 2.522-5.905 3.911-9.517 3.911s-6.992-1.389-9.518-3.912l-17.797-17.775c-2.522-2.518-3.911-5.888-3.911-9.489 0-3.6 1.389-6.97 3.911-9.489l107.941-107.81c2.526-2.523 5.905-3.912 9.518-3.912 3.612 0 6.992 1.389 9.524 3.918l17.791 17.741c2.522 2.519 3.911 5.893 3.911 9.503-.001 3.611-1.39 6.986-3.912 9.504zM121.378 56.57a10.039 10.039 0 007.114 2.942c2.58 0 5.161-.986 7.128-2.957 3.929-3.937 3.923-10.313-.014-14.242L98.908 5.688c-3.936-3.929-10.313-3.924-14.242.014-3.929 3.937-3.923 10.313.014 14.242zm260.344 2.942c2.575 0 5.151-.982 7.117-2.945l36.67-36.626c3.935-3.93 3.939-10.307.008-14.242-3.93-3.935-10.306-3.939-14.242-.008l-36.67 36.626c-3.935 3.93-3.939 10.307-.008 14.242a10.039 10.039 0 007.125 2.953z"></path>
    <path d="M62.819 433.204c-3.899 3.966-3.845 10.343.122 14.242l.029.028a10.005 10.005 0 007.038 2.882c2.607 0 5.214-1.009 7.189-3.018 3.899-3.966 3.83-10.357-.136-14.256-3.965-3.899-10.341-3.844-14.242.122zm279.787-80.937c1.532 0 3.086-.349 4.545-1.084 4.966-2.505 6.961-8.561 4.457-13.527-2.505-4.966-8.562-6.962-13.527-4.457l-.056.028c-4.966 2.505-6.933 8.547-4.429 13.513 1.768 3.508 5.324 5.527 9.01 5.527z"></path>
  </symbol>
  <symbol xmlns="http://www.w3.org/2000/svg" viewBox="0 -56 512 512" id="q2">
    <path d="M256 60c-77.195 0-140 62.805-140 140s62.805 140 140 140 140-62.805 140-140S333.195 60 256 60zm0 250c-60.652 0-110-49.348-110-110S195.348 90 256 90s110 49.348 110 110-49.348 110-110 110zm0 0"></path>
    <path d="M183 167.926h17.715v64.508H183zm65.277 45.109c-.816 1-1.726 1.817-2.726 2.453s-2.043 1.09-3.133 1.364a13.06 13.06 0 01-3.18.41c-2.062 0-3.894-.473-5.496-1.41-1.605-.938-2.969-2.196-4.09-3.77s-1.968-3.39-2.543-5.453c-.578-2.059-.863-4.207-.863-6.45 0-2 .242-4.011.727-6.042.484-2.028 1.257-3.848 2.316-5.45a12.933 12.933 0 013.996-3.91c1.606-.996 3.528-1.496 5.77-1.496.968 0 2.027.121 3.18.364 1.152.242 2.242.664 3.269 1.27 1.031.605 1.984 1.425 2.863 2.452.875 1.031 1.59 2.332 2.137 3.906l13.535-9.628c-2.059-4.239-5.238-7.645-9.539-10.22s-9.328-3.863-15.082-3.863c-4.906 0-9.285.942-13.129 2.817-3.848 1.879-7.117 4.332-9.812 7.36-2.696 3.027-4.739 6.448-6.133 10.265s-2.09 7.691-2.09 11.629c0 4.12.758 8.18 2.27 12.176 1.515 3.996 3.62 7.57 6.316 10.718 2.695 3.153 5.918 5.68 9.676 7.586 3.754 1.91 7.87 2.864 12.355 2.864 2.543 0 5.149-.332 7.813-1a32.31 32.31 0 007.543-2.907 26.43 26.43 0 006.312-4.722c1.848-1.88 3.227-4 4.133-6.364l-14.445-8.629c-.48 1.454-1.133 2.68-1.95 3.68zm72.321-35.207c-2.7-3.09-5.938-5.57-9.723-7.45-3.785-1.874-7.98-2.815-12.586-2.815-4.543 0-8.707.894-12.488 2.68-3.79 1.788-7.074 4.179-9.86 7.179-2.785 2.996-4.953 6.465-6.496 10.402a33.24 33.24 0 00-2.316 12.266c0 4.176.738 8.234 2.226 12.172 1.485 3.937 3.57 7.433 6.266 10.496 2.695 3.058 5.938 5.527 9.723 7.402 3.785 1.88 7.98 2.817 12.586 2.817 4.543 0 8.718-.907 12.535-2.727 3.816-1.816 7.09-4.223 9.812-7.223 2.727-2.996 4.864-6.449 6.407-10.355A32.976 32.976 0 00329 200.449c0-4.117-.727-8.144-2.18-12.082-1.453-3.933-3.53-7.449-6.222-10.539zm-10.36 28.527c-.515 2.063-1.285 3.895-2.316 5.5s-2.363 2.907-3.996 3.907c-1.637 1-3.574 1.496-5.817 1.496-2.18 0-4.086-.485-5.722-1.453s-3-2.239-4.09-3.817c-1.09-1.574-1.895-3.375-2.406-5.406a25.519 25.519 0 01-.774-6.312c0-2.122.258-4.196.774-6.223.511-2.031 1.3-3.848 2.363-5.453a12.488 12.488 0 013.996-3.864c1.602-.964 3.527-1.453 5.77-1.453 2.18 0 4.085.47 5.722 1.41a12.185 12.185 0 014.043 3.723c1.059 1.543 1.863 3.332 2.406 5.36.547 2.03.82 4.132.82 6.316 0 2.125-.257 4.21-.773 6.27zM467 280c-12.09 0-23.473 4.945-32.055 13.922A46.673 46.673 0 00424.871 310h-39.094l-4.46 4.86C349.18 349.901 303.503 370 256 370s-93.18-20.098-125.316-55.14l-4.461-4.86H87.422C81.227 292.54 64.555 280 45 280c-12.09 0-23.473 4.945-32.055 13.922C4.598 302.652 0 314.047 0 326c0 24.672 19.766 44 45 44 19.555 0 36.227-12.54 42.422-30h25.762c37.496 38.215 89.164 60 142.816 60s105.32-21.785 142.816-60h25.438c5.855 17.605 22.543 30 42.746 30 24.813 0 45-20.188 45-45s-20.188-45-45-45zM45 340c-8.55 0-15-6.02-15-14 0-8.523 7.008-16 15-16 8.27 0 15 6.73 15 15s-6.73 15-15 15zm422 0c-8.55 0-15-6.02-15-14 0-8.523 7.008-16 15-16 8.27 0 15 6.73 15 15s-6.73 15-15 15zm0 0"></path>
    <path d="M45 211c24.813 0 45-20.188 45-45 0-19.555-12.54-36.227-30-42.422V90h66.223l4.46-4.86C162.82 50.099 208.497 30 256 30s93.18 20.098 125.316 55.14l4.461 4.86h38.477c5.855 17.605 22.543 30 42.746 30 24.813 0 45-20.188 45-45s-20.188-45-45-45c-12.09 0-23.473 4.945-32.055 13.922A46.673 46.673 0 00424.871 60h-26.055C361.32 21.785 309.652 0 256 0S150.68 21.785 113.184 60H30v63.664c-6.34 2.324-12.156 6.133-17.055 11.258C4.598 143.652 0 155.047 0 167c0 24.672 19.766 44 45 44zM467 60c8.27 0 15 6.73 15 15s-6.73 15-15 15c-8.55 0-15-6.02-15-14 0-8.523 7.008-16 15-16zM45 151c8.27 0 15 6.73 15 15s-6.73 15-15 15c-8.55 0-15-6.02-15-14 0-8.523 7.008-16 15-16zm0 0"></path>
  </symbol>
  <symbol xmlns="http://www.w3.org/2000/svg" viewBox="0 0 511.999 511.999" id="q3">
    <path d="M453.034 361.322a7.514 7.514 0 00-8.19 1.628l-82.126 82.126a7.514 7.514 0 005.315 12.829h82.126a7.514 7.514 0 007.515-7.515v-82.126a7.517 7.517 0 00-4.64-6.942zm-66.861 81.554l56.469-56.469v56.469h-56.469z"></path>
    <path d="M507.361 240.867a7.514 7.514 0 00-8.19 1.628l-22.507 22.507V111.971a7.515 7.515 0 00-7.515-7.515h-57.741l20.96-20.96.009-.01 20.196-20.196c4.327-4.327 6.71-10.083 6.71-16.203s-2.383-11.874-6.71-16.203L429.219 7.53C424.892 3.203 419.136.82 413.016.82s-11.875 2.383-16.203 6.71l-20.206 20.206-24.416 24.416-52.303 52.303H66.62V30.11a7.515 7.515 0 00-7.515-7.515C26.515 22.597 0 49.11 0 81.702v319.186c0 .555.064 1.095.178 1.615 1.038 13.829 7.021 26.678 17.02 36.432C27.886 449.359 41.995 455.1 56.927 455.1h229.638l-43.249 43.249a7.516 7.516 0 005.314 12.829h255.855a7.515 7.515 0 007.515-7.515V247.81a7.517 7.517 0 00-4.639-6.943zM407.443 18.159c3.072-3.074 8.077-3.074 11.149 0l23.355 23.355c3.074 3.073 3.074 8.076 0 11.15l-14.891 14.892-34.506-34.505 14.893-14.892zm-25.521 25.52l34.505 34.504-13.789 13.789-34.503-34.504 13.787-13.789zm115.05 288.573h-13.865a7.514 7.514 0 00-7.515 7.515 7.514 7.514 0 007.515 7.515h13.865v22.646h-13.865c-4.151 0-7.515 3.364-7.515 7.515s3.364 7.515 7.515 7.515h13.865v22.645h-13.865a7.514 7.514 0 00-7.515 7.515 7.514 7.514 0 007.515 7.515h13.865v22.646h-13.865a7.515 7.515 0 100 15.03h13.865v35.842h-230.2l75.908-75.907a7.515 7.515 0 000-10.628 7.572 7.572 0 00-1.078-.889 7.514 7.514 0 00-9.551.889l-30.456 30.456H56.928c-22.792 0-41.14-17.794-41.862-40.545a44.19 44.19 0 01.332-4.244l.003-.024c.084-.665.185-1.327.3-1.985l.04-.225a43.474 43.474 0 011.057-4.494c.11-.382.224-.763.345-1.14.121-.377.25-.75.381-1.123.091-.261.181-.522.279-.781.183-.492.377-.979.577-1.462.057-.139.113-.28.172-.419.257-.6.524-1.193.806-1.779l.035-.075c5.878-12.164 17.183-21.233 30.75-24.047l.114-.025c.622-.127 1.25-.236 1.882-.337.105-.017.21-.038.317-.054a44.641 44.641 0 011.725-.22c.162-.018.323-.043.486-.059a44.442 44.442 0 011.681-.128c.178-.011.356-.03.534-.039a44.298 44.298 0 012.223-.056 7.515 7.515 0 007.515-7.515v-54.489a7.515 7.515 0 10-15.03 0v47.447c-12.69 1.605-24.469 7.265-33.757 16.335a60.423 60.423 0 00-2.805 2.954V81.702c0-21.741 15.826-39.858 36.561-43.436v226.483a7.516 7.516 0 0015.03 0V119.486h218.24l-41.544 41.544a7.515 7.515 0 0010.627 10.628l54.373-54.373.005-.005 49.185-49.185 34.503 34.505-4.048 4.048-.01.009-151.528 151.53-34.504-34.504 29.868-29.868a7.515 7.515 0 00-10.627-10.628l-35.183 35.182a7.546 7.546 0 00-.529.591c-.055.068-.104.141-.156.212-.106.141-.21.283-.307.431-.055.086-.105.174-.157.263a6.301 6.301 0 00-.371.714 7.526 7.526 0 00-.186.447c-.02.053-.046.103-.065.156l-14.641 41.475-9.982 28.279a7.599 7.599 0 00-.298 1.143h-24.992a7.515 7.515 0 100 15.03h208.114a7.514 7.514 0 007.515-7.515 7.514 7.514 0 00-7.515-7.515H193.093l45.83-16.178c.038-.014.074-.033.112-.047.178-.066.353-.14.526-.219.069-.032.138-.062.205-.095.18-.09.357-.189.531-.295.056-.034.114-.065.169-.1.181-.116.357-.243.53-.377.043-.033.088-.062.13-.096.209-.168.414-.349.608-.543l154.644-154.643h65.255v160.546L354.137 387.53a7.515 7.515 0 1010.628 10.628l.003-.003L496.972 265.95v66.302zm-274.295-66.556l-21.526 7.599-14.342-14.342 7.599-21.526 28.269 28.269z"></path>
  </symbol>
  <symbol xmlns="http://www.w3.org/2000/svg" viewBox="0 0 480.003 480" id="q4">
    <path d="M136 272h16v16h-16zm32 0h16v16h-16zm32 0h16v16h-16zm-64 32h16v16h-16zm32 0h16v16h-16zm32 0h16v16h-16zm32 0h16v16h-16zm32 0h16v16h-16zm-128 32h16v16h-16zm32 0h16v16h-16zm32 0h16v16h-16zm32 0h16v16h-16zm32 0h16v16h-16zm-128 32h16v16h-16zm32 0h16v16h-16zm32 0h16v16h-16zm32 0h16v16h-16zm32 0h16v16h-16zm-128 32h16v16h-16zm32 0h16v16h-16zm32 0h16v16h-16zm32 0h16v16h-16zm32 0h16v16h-16zm-128 32h16v16h-16zm32 0h16v16h-16zm32 0h16v16h-16zm32 0h16v16h-16zm32 0h16v16h-16zm0 0"></path>
    <path d="M472 24h-56V8a8 8 0 00-8-8h-80a8 8 0 00-8 8v16H8a8 8 0 00-8 8v32c0 4.422 3.582 8 8 8h24v152c0 4.422 3.582 8 8 8a8 8 0 11-8 8H16c.023 5.855 2.2 11.5 6.121 15.852l-20.52 27.351.102.078A7.835 7.835 0 000 288v32c0 2.125.844 4.156 2.344 5.656l16 16A8.001 8.001 0 0024 344h32a8.001 8.001 0 005.656-2.344l16-16A7.994 7.994 0 0080 320v-32a7.835 7.835 0 00-1.703-4.719l.101-.078-20.52-27.351a23.849 23.849 0 005.372-21.891A23.85 23.85 0 0048 217.37V72h272v8c0 4.422 3.582 8 8 8h16v376h-32V144h-16v32h-48v-16h-16v16h-48v-8h-16v8h-48v-24h104v-16H120v-32h-16v360H91.312l-37.656-37.652a7.997 7.997 0 00-11.312 0L4.687 464H0v16h480v-16h-6.238a23.778 23.778 0 005.27-22.79 23.78 23.78 0 00-16.794-16.28 23.997 23.997 0 00-7.675-28.098 23.993 23.993 0 00-29.125 0 23.997 23.997 0 00-7.676 28.098 23.78 23.78 0 00-16.793 16.28 23.778 23.778 0 005.27 22.79H392V88h16c4.418 0 8-3.578 8-8v-8h56c4.418 0 8-3.578 8-8V32a8 8 0 00-8-8zM44 264l12 16H24l12-16zm20 52.691L52.687 328H27.314L16 316.691V296h48zM437.602 40L416 54.402V40zM336 16h32v32h-32zM120 41.602L141.602 56H98.398zm-48 12.8L50.398 40h43.204zM146.398 40h43.204L168 54.402zM216 41.602L237.602 56h-43.204zM242.398 40h43.204L264 54.402zM16 40h5.602l24 16H16zm274.398 16l24-16H320v16zM376 437.602L361.602 416 376 394.402zm0-192L361.602 224 376 202.402zm-16 4.8L374.398 272 360 293.602zm0-52.8v-43.2L374.398 176zm0 148.8L374.398 368 360 389.602zm16-4.847L361.602 320 376 298.402zM361.602 128L376 106.402v43.2zM360 101.602V88h9.055zM296 192v80h-48v-80zm-64 0v68.8l-18.398-18.183a8.02 8.02 0 00-5.602-2.312h-24V192zm-64 0v13.336h-48V192zM48 443.313L68.688 464H27.312zM120 464V221.336h48v27c0 4.422 3.582 8 8 8h28.71l29.688 29.355A8 8 0 00240 288h56v176zm240-21.598L374.398 464H360zM456 456a8 8 0 110-16 8 8 0 010 16zm-16-48a8 8 0 110 16 8 8 0 010-16zm-16 32a8 8 0 110 16 8 8 0 010-16zM400 72h-64v-8h40c4.418 0 8-3.578 8-8V16h16zm42.398-16L464 41.602V56zm0 0"></path>
  </symbol>
  <symbol xmlns="http://www.w3.org/2000/svg" viewBox="0 0 512.001 512.001" id="rocket">
    <path d="M268.662 243.351a10 10 0 00-14.15 0c-3.9 3.9-3.9 10.23 0 14.14 3.91 3.9 10.24 3.9 14.15 0 3.9-3.91 3.9-10.24 0-14.14zM395.933 116.07c-19.54-19.539-51.172-19.54-70.713 0-19.489 19.489-19.49 51.209.003 70.714 19.496 19.484 51.216 19.492 70.71-.002 19.538-19.538 19.542-51.171 0-70.712zm-14.142 56.569c-11.693 11.694-30.727 11.694-42.426.002-11.695-11.702-11.696-30.736-.002-42.429 11.723-11.723 30.703-11.725 42.428 0 11.723 11.722 11.725 30.703 0 42.427z"></path>
    <path d="M509.07 2.929a9.965 9.965 0 00-7.43-2.922c-2.261.081-56.096 2.245-120.091 24.864-51.28 18.106-94.023 44.029-127.042 77.049a380.537 380.537 0 00-21.488 23.396c-32.648-19.218-58.81-13.192-75.349-4.341-38.081 20.38-61.652 75.716-61.652 115.296a10.007 10.007 0 0010.001 10 10 10 0 007.073-2.929c20.083-20.083 44.854-18.827 52.946-17.763l3.502 3.502c-6.892 16.4-12.444 32.708-16.516 48.569-1.47 5.74-.974 11.814 1.211 17.37-9.628 4.437-18.917 10.952-27.005 19.04-25.741 25.742-30.968 88.476-31.178 91.134a10 10 0 0010.755 10.756c2.658-.209 65.394-5.436 91.135-31.177 8.085-8.085 14.599-17.373 19.036-26.999 5.882 2.313 11.936 2.598 17.38 1.203 15.854-4.071 32.16-9.621 48.562-16.514l3.502 3.502c1.063 8.093 2.319 32.864-17.763 52.945a10 10 0 007.071 17.07c39.58 0 94.915-23.571 115.295-61.652 8.851-16.537 14.877-42.699-4.341-75.348a380.674 380.674 0 0023.396-21.488c33.02-33.02 58.942-75.763 77.048-127.039 22.62-63.998 24.783-117.834 24.864-120.094.1-2.775-.959-5.466-2.922-7.43zM118.376 214.762c6.212-30.063 24.255-63.052 48.735-76.154 16.359-8.754 34.24-7.896 53.252 2.511a404.33 404.33 0 00-42.015 68.487c-.149-.092-1.949-2.355-5.293-3.109-1.375-.311-27.834-6.002-54.679 8.265zM183.8 370.63c-13.75 13.75-46.005 21.002-66.392 23.963 2.962-20.388 10.215-52.642 23.964-66.391 7.7-7.7 16.628-13.538 25.602-16.826l33.652 33.652c-3.288 8.974-9.125 17.902-16.826 25.602zm45.59-31.027c-2.894.741-6.246-.347-8.738-2.835l-19.586-19.585-25.826-25.827c-2.494-2.499-3.582-5.85-2.843-8.739 3.203-12.474 7.392-25.272 12.486-38.193l82.695 82.695c-12.923 5.095-25.719 9.283-38.188 12.484zm144.004 5.288c-13.102 24.479-46.09 42.523-76.152 48.734 9.585-18.037 11.698-40.998 8.196-54.921-.813-3.234-2.923-4.86-3.041-5.051a404.48 404.48 0 0068.486-42.015c10.407 19.014 11.264 36.897 2.511 53.253zM395.94 243.35a362.965 362.965 0 01-28.84 25.872c-24.342 19.6-51.134 36.202-79.718 49.418l-94.02-94.018c13.216-28.586 29.818-55.378 49.416-79.717 8.164-10.133 16.868-19.837 25.875-28.843 29.625-29.626 67.859-53.204 113.671-70.176l83.792 83.792c-16.97 45.811-40.548 84.045-70.176 113.672zm77.371-134.763l-69.896-69.896c38.081-11.828 71.21-16.257 87.746-17.849-1.593 16.539-6.023 49.668-17.85 87.745z"></path>
    <path d="M240.371 413.049c-3.907-3.905-10.239-3.903-14.143.002l-28.28 28.29c-3.904 3.906-3.903 10.238.002 14.142 3.907 3.904 10.239 3.904 14.143-.002l28.28-28.29c3.904-3.906 3.903-10.238-.002-14.142zM98.954 271.631c-3.904-3.906-10.235-3.906-14.142-.002l-28.29 28.28c-3.906 3.904-3.907 10.236-.003 14.142 3.903 3.904 10.234 3.908 14.142.002l28.29-28.28c3.906-3.904 3.907-10.236.003-14.142zM169.663 427.2c-3.903-3.905-10.236-3.905-14.142-.001l-67.74 67.73c-3.906 3.905-3.906 10.237-.001 14.142 3.903 3.905 10.236 3.907 14.142.001l67.74-67.73c3.906-3.905 3.906-10.237.001-14.142zm-80 0c-3.904-3.905-10.237-3.905-14.142-.001l-67.74 67.73c-3.906 3.905-3.906 10.237-.001 14.142 3.903 3.905 10.236 3.907 14.142.001l67.74-67.73c3.906-3.905 3.906-10.237.001-14.142zm-4.861-84.862c-3.904-3.904-10.237-3.904-14.142.001l-67.73 67.74c-3.905 3.906-3.905 10.237.001 14.143 3.905 3.905 10.237 3.905 14.142-.001l67.73-67.74c3.905-3.906 3.905-10.237-.001-14.143zm226.281-141.419c-3.906-3.905-10.236-3.905-14.143 0l-14.14 14.14c-3.905 3.905-3.905 10.237 0 14.143 3.906 3.905 10.237 3.905 14.143 0l14.14-14.14c3.905-3.905 3.905-10.237 0-14.143z"></path>
  </symbol>
  <symbol xmlns="http://www.w3.org/2000/svg" viewBox="0 0 512 512" id="wallet">
    <path d="M482 275.988h-10v-70c0-27.596-19.378-50.736-45.238-56.568l-45.515-78.834c-6.67-11.553-17.44-19.818-30.327-23.271-9.099-2.437-18.481-2.258-27.279.398l-33.096-33.097c-19.475-19.473-51.159-19.475-70.634 0L86.541 147.988H58c-31.981 0-58 26.019-58 58v248c0 31.981 26.019 58 58 58h133c5.522 0 10-4.478 10-10s-4.478-10-10-10H58c-20.953 0-38-17.047-38-38v-248c0-20.953 17.047-38 38-38h356c20.953 0 38 17.047 38 38v70h-74c-29.775 0-54 24.225-54 54s24.225 54 54 54h74v70c0 20.953-17.047 38-38 38H281c-5.522 0-10 4.478-10 10s4.478 10 10 10h133c31.981 0 58-26.019 58-58v-70h10c16.542 0 30-13.458 30-30v-48c0-16.541-13.458-30-30-30zM345.744 66.634c7.726 2.07 14.184 7.025 18.183 13.952l38.915 67.402H187.293l135.728-78.363c6.926-3.998 14.994-5.062 22.723-2.991zm-111.69-37.875c5.655-5.656 13.176-8.771 21.174-8.771 7.999 0 15.52 3.115 21.175 8.771l28.331 28.331-157.44 90.898h-32.468zM492 353.988c0 5.514-4.486 10-10 10H378c-18.748 0-34-15.252-34-34s15.252-34 34-34h104c5.514 0 10 4.486 10 10z"></path>
    <path d="M376.33 319.988c-2.63 0-5.21 1.069-7.07 2.93s-2.93 4.43-2.93 7.07c0 2.63 1.069 5.21 2.93 7.069a10.077 10.077 0 007.07 2.931c2.64 0 5.21-1.07 7.069-2.931 1.87-1.859 2.931-4.439 2.931-7.069s-1.061-5.21-2.931-7.07a10.054 10.054 0 00-7.069-2.93zm-140.33 172c-2.63 0-5.21 1.069-7.07 2.93s-2.93 4.44-2.93 7.07 1.069 5.21 2.93 7.069c1.86 1.86 4.44 2.931 7.07 2.931s5.21-1.07 7.069-2.931c1.86-1.859 2.931-4.439 2.931-7.069s-1.07-5.21-2.931-7.07a10.072 10.072 0 00-7.069-2.93z"></path>
  </symbol>
</svg>